<?xml version="1.0" standalone="no"?>
<!DOCTYPE svg PUBLIC "-//W3C//DTD SVG 20010904//EN"
 "http://www.w3.org/TR/2001/REC-SVG-20010904/DTD/svg10.dtd">
<svg version="1.0" xmlns="http://www.w3.org/2000/svg"
 width="779.000000pt" height="532.000000pt" viewBox="0 0 779.000000 532.000000"
 preserveAspectRatio="xMidYMid meet">

<g transform="translate(0.000000,532.000000) scale(0.100000,-0.100000)"
fill="#000000" stroke="none">
<path d="M3685 5220 l-70 -6 87 -2 c48 -1 89 2 92 6 6 10 -18 10 -109 2z"/>
<path d="M3841 5226 c2 -2 67 -6 144 -9 87 -3 121 -2 90 3 -50 8 -242 13 -234
6z"/>
<path d="M3575 5210 c-18 -8 -17 -9 8 -9 15 -1 27 4 27 9 0 12 -8 12 -35 0z"/>
<path d="M4140 5212 c0 -5 30 -12 66 -16 489 -50 1033 -291 1424 -631 265
-230 436 -451 575 -740 90 -186 118 -260 169 -440 69 -248 87 -366 91 -605 1
-91 1 -136 -1 -100 -11 210 -27 368 -48 465 -25 116 -64 267 -72 274 -3 3 -2
-22 2 -55 9 -81 9 -78 16 -89 11 -19 6 -127 -7 -153 -8 -15 -12 -41 -9 -64 4
-26 2 -38 -6 -38 -9 0 -9 -4 -3 -12 16 -21 22 -57 9 -52 -7 3 -12 -4 -12 -16
0 -13 5 -19 14 -15 8 3 2 -9 -13 -26 -20 -25 -23 -34 -13 -41 10 -6 10 -10 -2
-18 -10 -6 -11 -10 -2 -10 6 0 12 -7 12 -15 0 -14 -11 -19 -35 -16 -5 1 -2 -5
9 -13 12 -10 17 -23 13 -36 -3 -11 -1 -20 5 -20 5 0 6 -5 3 -10 -4 -6 -12 -7
-18 -3 -9 5 -9 3 -1 -8 13 -17 14 -49 2 -49 -5 0 -12 -10 -17 -22 -5 -14 -10
23 -15 108 -4 71 -12 149 -16 174 -8 40 -9 39 -4 -17 11 -133 5 -440 -11 -546
-59 -413 -200 -758 -444 -1082 -133 -176 -366 -393 -571 -530 -316 -211 -685
-347 -1074 -395 -100 -12 -374 -16 -476 -7 -240 23 -543 104 -755 202 -247
115 -539 305 -670 436 -17 16 -33 27 -36 24 -3 -3 -14 4 -24 15 -18 20 -62 29
-50 10 3 -6 -1 -10 -11 -10 -13 0 -14 -3 -4 -15 14 -17 11 -18 -45 -19 -27 -1
-30 -4 -30 -33 0 -24 -3 -29 -12 -21 -9 7 -13 7 -13 0 0 -19 200 -191 320
-276 201 -143 351 -225 569 -311 75 -30 130 -55 122 -55 -21 0 -235 87 -334
137 -580 290 -1017 762 -1234 1333 -187 494 -231 969 -132 1450 65 316 206
640 407 935 23 34 26 41 8 20 -41 -47 -159 -240 -214 -350 -110 -217 -198
-483 -232 -695 -31 -191 -25 -176 -68 -175 -20 1 -52 5 -70 9 -39 9 -82 -14
-82 -44 0 -28 -21 -70 -32 -64 -12 8 -48 -25 -48 -44 0 -12 -3 -12 -15 -2 -8
7 -15 19 -15 27 0 11 -7 14 -25 11 -16 -4 -25 -1 -25 8 0 7 -6 17 -13 21 -22
13 -103 208 -157 378 -155 486 -153 480 -175 448 -7 -10 -26 -68 -44 -130 -87
-308 -199 -587 -278 -694 -49 -67 -63 -127 -62 -267 1 -140 22 -218 66 -248
29 -19 47 -21 190 -23 235 -4 274 -2 289 10 16 13 34 4 34 -17 0 -8 4 -14 9
-14 21 0 41 13 41 26 0 12 4 12 25 -2 23 -15 27 -15 50 0 23 15 26 15 31 1 10
-24 40 -17 68 16 14 17 26 35 26 40 0 10 41 -10 52 -25 3 -5 9 -29 13 -53 9
-59 32 -73 122 -73 71 0 73 -1 79 -27 95 -406 216 -704 391 -965 405 -606
1069 -1022 1818 -1139 164 -26 480 -36 625 -20 653 70 1209 335 1660 791 69
69 153 160 186 201 211 257 373 595 466 970 l42 169 189 0 c269 0 335 -27 275
-112 -12 -18 -27 -36 -33 -40 -23 -17 16 -23 142 -23 l135 0 25 60 c24 58 28
62 76 79 187 66 311 218 347 426 37 206 -89 436 -294 538 -63 31 -63 32 -68
80 -3 27 -13 66 -24 88 l-19 39 -126 3 -126 3 -11 -28 c-7 -18 -9 -50 -3 -91
l7 -63 -49 -24 c-66 -34 -81 -45 -154 -116 -68 -66 -103 -129 -124 -221 -13
-56 -31 -84 -21 -33 5 27 -7 32 -26 13 -9 -9 -12 -9 -12 1 0 9 -8 11 -24 7
-23 -6 -25 -3 -29 31 -4 37 -4 37 -5 -7 -4 -79 -22 -83 -22 -5 0 39 -2 102 -5
140 -3 39 -3 64 1 58 3 -7 12 -13 20 -13 8 0 14 -7 14 -16 0 -10 6 -14 18 -10
73 21 110 27 139 21 20 -3 33 -2 33 5 0 5 -6 10 -12 10 -10 0 -9 3 1 9 33 21
-4 31 -119 31 -116 0 -120 1 -124 23 -20 109 -92 377 -131 482 -127 350 -287
599 -554 865 -210 209 -401 351 -650 484 -248 132 -428 195 -770 272 -14 3
-59 9 -101 14 -42 5 -88 12 -103 15 -15 4 -27 3 -27 -3z m-3564 -1704 c-22
-204 -66 -371 -91 -346 -4 3 -2 21 3 40 20 65 52 231 46 240 -3 5 7 56 22 114
16 58 30 101 32 95 2 -5 -4 -69 -12 -143z m-56 -108 c-16 -40 -23 -33 -9 9 6
18 14 30 17 27 2 -3 -1 -19 -8 -36z m6489 -142 c1 -32 -3 -58 -8 -58 -12 0
-26 125 -15 141 12 20 22 -18 23 -83z m89 -45 c-10 -2 -26 -2 -35 0 -10 3 -2
5 17 5 19 0 27 -2 18 -5z m95 0 c-13 -2 -33 -2 -45 0 -13 2 -3 4 22 4 25 0 35
-2 23 -4z m122 -66 c87 -42 152 -90 187 -140 18 -25 10 -21 -35 20 -32 29 -88
66 -125 83 -37 18 -76 37 -87 43 -24 13 -173 22 -209 13 -14 -3 -26 -10 -26
-15 0 -5 9 -7 20 -4 11 3 20 0 20 -6 0 -6 -6 -11 -14 -11 -8 0 -19 -13 -25
-30 -5 -16 -15 -30 -21 -30 -6 0 -9 -4 -5 -9 3 -6 -2 -14 -12 -20 -27 -14 -35
-14 -45 1 -6 9 -8 8 -6 -7 2 -16 -2 -19 -21 -17 -18 3 -22 0 -18 -12 4 -10 1
-16 -8 -16 -8 0 -15 -4 -15 -9 0 -5 -9 -13 -20 -16 -23 -7 -72 -50 -69 -60 1
-3 -2 -20 -6 -38 -6 -28 -8 -30 -15 -12 -7 18 -9 17 -20 -12 -14 -38 -45 -56
-35 -20 4 12 19 49 35 82 32 66 33 84 2 33 -113 -189 -68 -451 106 -609 31
-28 46 -45 32 -35 -63 41 -133 124 -172 203 -38 76 -41 91 -46 181 -8 162 33
265 147 375 60 59 137 107 201 128 14 5 70 7 125 6 93 -2 106 -5 180 -40z
m-167 -8 c-12 -7 -24 -7 -35 0 -15 9 -12 10 17 10 29 0 32 -1 18 -10z m-111
-75 c-3 -3 -12 -4 -19 -1 -8 3 -5 6 6 6 11 1 17 -2 13 -5z m175 -26 c83 -28
125 -56 178 -115 99 -112 115 -252 44 -394 -60 -121 -215 -189 -360 -159 -96
20 -171 68 -208 132 -18 31 -17 31 16 -7 120 -137 369 -146 490 -18 82 87 108
254 57 364 -67 143 -241 229 -384 190 -118 -32 -220 -139 -231 -243 -3 -29
-10 -57 -16 -63 -7 -7 -9 4 -4 35 9 66 37 150 47 144 5 -3 9 -1 9 3 0 18 76
86 124 110 97 49 145 54 238 21z m-842 -33 c0 -8 -2 -15 -4 -15 -2 0 -6 7 -10
15 -3 8 -1 15 4 15 6 0 10 -7 10 -15z m703 -72 c-37 -121 -63 -155 -160 -209
-66 -38 -80 -66 -36 -72 12 -2 52 -30 87 -62 66 -60 110 -80 174 -80 47 0 92
23 161 84 33 28 70 58 82 67 23 16 23 16 -43 58 -73 46 -98 79 -128 167 -28
83 -27 96 8 88 62 -14 143 -85 189 -165 55 -97 21 -267 -71 -345 -73 -63 -211
-83 -311 -45 -190 72 -248 322 -111 478 45 51 98 82 142 83 l31 0 -14 -47z
m96 10 c20 -70 8 -85 -15 -20 l-12 32 -16 -35 -16 -35 5 40 c4 31 0 25 -19
-30 -12 -39 -28 -80 -35 -93 -19 -36 -156 -134 -183 -130 -20 3 -16 7 27 32
86 50 127 88 151 140 13 28 24 59 24 68 0 40 18 64 48 66 28 2 32 -2 41 -35z
m-5926 -43 c14 -12 19 -118 10 -205 l-8 -79 -65 -12 c-36 -7 -69 -8 -74 -4
-11 10 -14 256 -3 292 7 27 8 28 70 22 34 -4 66 -10 70 -14z m-890 -57 c-7 -2
-19 -2 -25 0 -7 3 -2 5 12 5 14 0 19 -2 13 -5z m197 -123 c0 -96 -3 -120 -14
-120 -8 0 -17 7 -20 16 -16 42 4 224 25 224 5 0 9 -54 9 -120z m160 -88 c-5
-2 -11 -13 -11 -25 -1 -17 -3 -15 -9 8 -12 49 -5 182 11 201 12 15 14 5 17
-82 2 -62 -1 -100 -8 -102z m-73 101 c6 -72 -1 -123 -16 -123 -13 0 -22 92
-15 155 9 73 23 58 31 -32z m253 -26 c-1 -94 -2 -100 -15 -77 -8 14 -15 48
-15 75 0 28 0 61 0 73 0 29 8 44 21 37 5 -4 9 -52 9 -108z m-519 77 c21 -19
79 -18 79 0 0 8 5 18 10 21 6 4 10 -32 10 -101 0 -89 -2 -105 -14 -95 -10 9
-16 8 -26 -4 -10 -12 -16 -13 -27 -3 -9 7 -27 14 -41 16 -14 2 -33 7 -43 13
-12 6 -20 5 -25 -2 -3 -6 -19 -9 -35 -5 -25 5 -29 2 -29 -17 0 -18 -2 -19 -10
-7 -11 16 -3 150 11 188 9 22 13 23 67 17 31 -4 64 -14 73 -21z m427 -119 c0
-27 -2 -44 -5 -36 -5 11 -7 11 -14 0 -11 -17 -12 141 -2 168 9 22 21 -54 21
-132z m268 0 c-4 -19 -11 -35 -16 -35 -13 0 -23 95 -14 142 l7 43 15 -58 c8
-33 11 -72 8 -92z m-97 -12 c1 -24 -3 -43 -8 -43 -16 0 -25 143 -11 170 4 9
18 -83 19 -127z m6333 72 c53 -33 67 -56 16 -25 -37 23 -88 63 -73 58 6 -2 31
-17 57 -33z m-307 -105 c3 -5 2 -10 -4 -10 -5 0 -13 5 -16 10 -3 6 -2 10 4 10
5 0 13 -4 16 -10z m265 -15 c0 -8 -82 -45 -100 -44 -8 0 10 10 40 23 30 13 56
24 58 25 1 0 2 -1 2 -4z m-127 -52 c-7 -2 -19 -2 -25 0 -7 3 -2 5 12 5 14 0
19 -2 13 -5z m-856 -105 c-3 -7 -5 -2 -5 12 0 14 2 19 5 13 2 -7 2 -19 0 -25z
m678 -196 c-3 -3 -11 0 -18 7 -9 10 -8 11 6 5 10 -3 15 -9 12 -12z m-3748
-2008 c-3 -3 -12 -4 -19 -1 -8 3 -5 6 6 6 11 1 17 -2 13 -5z m70 -20 c-3 -3
-12 -4 -19 -1 -8 3 -5 6 6 6 11 1 17 -2 13 -5z"/>
<path d="M6954 3130 c-22 -10 -47 -26 -54 -35 -9 -11 3 -7 35 9 26 14 54 26
61 26 8 0 14 5 14 10 0 14 -9 12 -56 -10z"/>
<path d="M6830 3033 c-40 -41 -41 -43 -9 -17 31 25 65 64 56 64 -1 0 -23 -21
-47 -47z"/>
<path d="M3450 5195 c-109 -17 -202 -37 -196 -42 2 -2 52 5 110 16 59 12 120
21 136 21 16 0 32 5 35 10 3 6 5 10 3 9 -2 -1 -41 -7 -88 -14z"/>
<path d="M3185 5140 c-13 -6 -15 -9 -5 -9 8 0 22 4 30 9 18 12 2 12 -25 0z"/>
<path d="M3077 5108 c-73 -25 -70 -33 4 -11 59 18 64 21 58 27 -2 2 -30 -6
-62 -16z"/>
<path d="M2874 5035 c-17 -13 -16 -14 14 -4 33 11 41 19 19 19 -7 0 -22 -7
-33 -15z"/>
<path d="M3660 4973 c-163 -17 -365 -57 -495 -100 -637 -208 -1119 -609 -1395
-1162 -118 -236 -199 -491 -235 -736 -17 -116 -22 -368 -10 -495 22 -234 122
-572 240 -815 271 -558 832 -1022 1455 -1204 240 -71 323 -83 598 -88 155 -3
288 -1 346 6 139 16 348 66 514 122 397 134 808 419 1064 739 402 503 568
1126 473 1776 -40 278 -99 464 -221 709 -229 453 -628 828 -1115 1045 -240
107 -492 176 -733 199 -101 10 -404 13 -486 4z m620 -76 c190 -35 256 -53 420
-114 488 -185 899 -514 1175 -943 118 -184 255 -535 289 -745 24 -145 35 -217
39 -262 l6 -53 -537 0 -538 0 -13 82 c-25 163 -91 332 -189 483 -50 78 -187
224 -272 290 -145 112 -363 209 -552 246 l-118 22 -1 346 c0 190 -3 402 -5
470 -6 157 -9 163 -105 158 -37 -2 -75 -9 -83 -16 -14 -12 -16 -70 -16 -485
l0 -472 -115 -22 c-246 -47 -481 -158 -640 -304 -41 -37 -58 -47 -70 -40 -9 4
-162 153 -341 331 -257 255 -329 321 -344 316 -24 -8 -120 -112 -120 -131 0
-12 136 -149 504 -504 133 -129 181 -179 181 -188 0 -4 -22 -46 -48 -95 -73
-130 -136 -331 -137 -429 0 -27 -6 -40 -20 -48 -13 -7 -193 -9 -542 -8 l-523
3 3 60 c12 231 104 547 238 817 84 169 133 248 240 383 136 173 205 242 385
387 90 72 267 180 404 247 249 122 504 200 755 230 116 15 589 6 690 -12z
m-322 -524 l2 -481 73 -12 c209 -34 373 -98 552 -214 99 -65 217 -174 285
-264 107 -144 198 -366 222 -543 l12 -89 553 0 c485 0 553 -2 553 -15 0 -13
-65 -15 -517 -17 -285 -1 -465 -4 -400 -5 66 -2 117 -8 117 -13 0 -6 -8 -10
-17 -11 -10 0 -27 -2 -38 -4 -11 -2 -33 -6 -50 -8 -17 -3 -29 -10 -27 -17 2
-8 -5 -10 -22 -6 -13 3 -37 1 -51 -4 -23 -9 -26 -8 -21 5 7 19 1 19 -19 -2
-13 -12 -19 -13 -25 -4 -4 7 -16 11 -26 9 -15 -3 -12 -7 14 -18 17 -8 32 -21
32 -27 0 -16 -15 -16 -42 -2 -17 9 -19 8 -16 -8 3 -17 30 -18 558 -23 l555 -5
-557 -3 -558 -2 -4 -22 c-3 -13 -12 -63 -21 -112 -19 -100 -53 -201 -97 -290
-31 -62 -97 -166 -106 -166 -2 0 3 12 13 26 108 165 166 320 190 504 4 30 12
61 17 68 7 8 7 12 0 12 -5 0 -9 8 -8 17 1 12 -6 17 -21 16 -74 -3 -90 -11 -74
-41 8 -15 7 -23 -5 -33 -8 -7 -13 -21 -11 -31 3 -10 1 -18 -4 -18 -5 0 -9 -4
-9 -9 0 -5 9 -7 20 -4 11 3 20 0 20 -6 0 -6 -11 -11 -25 -11 -24 0 -30 -9 -26
-37 1 -7 -3 -13 -9 -13 -5 0 -10 6 -11 13 0 6 -4 2 -9 -11 -5 -12 -7 -29 -3
-37 3 -9 -3 -25 -12 -35 -10 -11 -16 -20 -12 -20 3 0 -8 -27 -24 -60 -34 -71
-47 -80 -18 -12 12 26 33 95 48 154 16 60 30 106 32 104 2 -3 3 50 1 117 -3
138 -12 172 -12 46 0 -108 -13 -192 -45 -302 -31 -109 -55 -160 -121 -264
-135 -210 -346 -367 -588 -437 -252 -73 -523 -50 -748 65 -22 11 -46 18 -54
15 -8 -3 -14 -2 -14 3 0 5 -24 29 -54 55 -53 45 -54 46 -85 30 -29 -14 -37
-32 -32 -72 1 -6 -6 -12 -15 -12 -16 0 -16 -2 -3 -13 8 -6 21 -20 28 -30 12
-15 12 -17 -3 -11 -28 11 -17 -3 20 -25 19 -12 32 -16 28 -10 -4 8 0 7 15 -1
12 -6 18 -16 15 -22 -5 -8 -1 -9 10 -5 9 4 15 3 12 -1 -7 -12 112 -69 211
-103 45 -15 130 -37 189 -49 59 -11 114 -26 121 -32 12 -9 14 -99 12 -515 -1
-277 -6 -506 -10 -509 -5 -3 -9 224 -9 505 0 494 -1 511 -19 521 -11 5 -33 10
-50 10 -47 0 -259 58 -341 93 -252 109 -463 301 -588 535 -49 92 -104 253
-128 372 -9 47 -18 86 -19 88 -2 2 -237 3 -524 2 -286 0 -532 2 -546 6 -24 6
-25 8 -25 95 l0 89 548 2 547 3 17 100 c28 174 78 308 166 445 l40 63 -247
241 c-135 132 -294 288 -354 345 l-107 105 54 55 54 54 104 -108 c99 -104 220
-224 468 -464 l114 -111 41 39 c169 163 443 297 679 332 39 6 81 12 94 15 l22
4 0 479 c0 263 3 481 7 485 4 4 39 5 78 4 l70 -3 3 -482z m2252 -1653 c0 -5
-2 -10 -4 -10 -3 0 -8 5 -11 10 -3 6 -1 10 4 10 6 0 11 -4 11 -10z m-980 -91
c0 -5 -4 -8 -9 -4 -5 3 -12 1 -16 -5 -7 -12 -25 -4 -25 11 0 5 11 9 25 9 14 0
25 -5 25 -11z m-2580 -171 c24 -163 104 -364 201 -499 202 -285 476 -452 854
-521 l70 -13 5 -500 c3 -275 9 -506 14 -514 7 -11 26 -12 90 -7 44 4 85 11 91
17 6 6 12 194 15 506 l5 497 65 12 c206 38 397 116 557 226 258 177 436 455
509 796 l17 82 535 0 535 0 -6 -52 c-30 -266 -46 -351 -97 -513 -162 -513
-486 -930 -955 -1227 -299 -189 -672 -318 -1025 -353 -164 -17 -461 -12 -580
9 -435 76 -775 224 -1120 487 -361 275 -615 642 -753 1089 -52 165 -107 437
-107 522 l0 38 534 0 534 0 12 -82z m2128 -350 c-2 -6 -10 -14 -16 -16 -7 -2
-10 2 -6 12 7 18 28 22 22 4z m42 -181 c0 -2 -12 -14 -27 -28 l-28 -24 24 28
c23 25 31 32 31 24z m-1575 -67 c3 -5 1 -10 -4 -10 -6 0 -11 5 -11 10 0 6 2
10 4 10 3 0 8 -4 11 -10z m1470 -46 c-56 -52 -138 -115 -105 -82 36 37 153
138 159 138 3 -1 -21 -26 -54 -56z m-1475 22 c0 -3 -4 -8 -10 -11 -5 -3 -10
-1 -10 4 0 6 5 11 10 11 6 0 10 -2 10 -4z m10 -48 c0 -4 -4 -8 -9 -8 -6 0 -12
4 -15 8 -3 5 1 9 9 9 8 0 15 -4 15 -9z m1280 -113 c0 -2 -10 -9 -22 -15 -22
-11 -22 -10 -4 4 21 17 26 19 26 11z m-162 -90 c-10 -10 -174 -63 -213 -69
-22 -4 -4 5 40 18 44 14 98 32 120 40 42 15 62 19 53 11z m-265 -82 c-7 -2
-19 -2 -25 0 -7 3 -2 5 12 5 14 0 19 -2 13 -5z m-55 -10 c-10 -2 -26 -2 -35 0
-10 3 -2 5 17 5 19 0 27 -2 18 -5z m-68 -7 c0 -2 -7 -7 -16 -10 -8 -3 -12 -2
-9 4 6 10 25 14 25 6z m-23 -734 c-1 -130 -2 -23 -2 238 0 261 1 368 2 237 2
-130 2 -344 0 -475z m-49 -289 c-16 -2 -40 -2 -55 0 -16 2 -3 4 27 4 30 0 43
-2 28 -4z"/>
<path d="M3560 4739 c-30 -4 -71 -10 -90 -13 -160 -21 -415 -108 -625 -213
-125 -63 -389 -248 -431 -302 -16 -21 -6 -48 30 -77 17 -15 127 -119 245 -233
117 -113 221 -209 230 -212 23 -9 36 -3 136 66 203 141 351 202 585 243 l45 8
3 358 c2 256 -1 363 -9 372 -13 15 -35 16 -119 3z m98 -346 l-3 -348 -5 330
c-3 182 -7 326 -9 320 -2 -5 -5 -129 -7 -274 -2 -175 -6 -266 -14 -271 -6 -3
-13 -17 -15 -30 -6 -30 -18 -42 -58 -58 -24 -9 -26 -11 -7 -8 94 17 104 18 95
9 -5 -5 -39 -15 -75 -22 -172 -33 -376 -125 -531 -240 -53 -39 -100 -71 -104
-71 -4 0 -113 104 -243 230 -130 127 -242 230 -249 230 -27 0 -10 21 60 76
252 198 526 334 821 410 82 22 280 59 334 63 9 1 12 -74 10 -346z"/>
<path d="M3418 4023 c7 -3 16 -2 19 1 4 3 -2 6 -13 5 -11 0 -14 -3 -6 -6z"/>
<path d="M3175 3920 c-3 -6 1 -7 9 -4 18 7 21 14 7 14 -6 0 -13 -4 -16 -10z"/>
<path d="M4095 4738 c-3 -7 -6 -174 -7 -371 l-3 -357 30 -9 c17 -5 50 -13 75
-17 50 -7 174 -53 293 -108 150 -69 310 -190 439 -333 145 -160 255 -370 295
-562 8 -42 20 -79 27 -83 14 -10 702 -8 736 1 32 9 36 38 20 146 -41 291 -183
629 -370 880 -302 407 -836 731 -1325 804 -141 21 -205 24 -210 9z m280 -39
c506 -95 1026 -446 1308 -884 122 -191 240 -482 261 -645 3 -29 -3 -15 -18 40
-47 176 -124 370 -147 370 -5 0 -9 6 -7 14 4 15 -62 146 -73 146 -11 0 -69 58
-68 67 3 20 -3 23 -22 12 l-21 -11 21 -22 c21 -22 29 -52 12 -42 -5 3 -11 -1
-15 -9 -3 -8 -1 -15 4 -15 5 0 7 -7 4 -15 -4 -9 0 -15 9 -15 8 0 19 -6 25 -13
13 -15 4 -60 -9 -51 -5 3 -9 -3 -9 -13 0 -10 -8 -29 -17 -42 -9 -14 -11 -21
-5 -17 8 4 10 2 6 -8 -3 -8 -12 -12 -20 -9 -16 6 -17 2 -8 -21 5 -14 9 -13 25
5 11 12 19 17 19 11 0 -6 -4 -13 -9 -17 -6 -3 -8 -14 -6 -25 2 -12 -2 -20 -10
-20 -7 0 -15 -7 -19 -15 -3 -8 -11 -15 -17 -15 -8 0 -8 4 1 15 7 8 9 15 4 15
-5 0 -17 -11 -26 -24 -16 -22 -16 -23 13 -21 21 1 28 -2 25 -12 -3 -7 -1 -13
3 -13 5 0 7 -9 4 -20 -6 -22 -18 -26 -29 -8 -5 7 -3 8 5 3 9 -5 9 -1 -1 14 -7
12 -19 21 -26 21 -7 0 -10 -5 -6 -11 3 -6 0 -15 -7 -20 -18 -11 -32 -12 -25
-1 2 4 -5 8 -17 9 -12 0 -16 -1 -9 -4 17 -7 15 -20 -7 -42 -17 -17 -21 -18
-32 -5 -16 20 -23 10 -10 -15 9 -17 9 -20 -3 -15 -12 4 -14 0 -10 -20 2 -15 0
-26 -6 -26 -6 0 -8 -5 -4 -11 5 -8 1 -8 -14 0 -15 8 -23 7 -31 -3 -8 -9 -8
-16 -2 -20 5 -3 12 0 14 6 3 8 6 6 6 -4 1 -21 -10 -23 -27 -6 -9 9 -16 7 -32
-7 -15 -13 -23 -16 -31 -8 -6 6 -18 9 -25 6 -8 -3 -21 0 -28 6 -27 22 -27 -7
-2 -86 13 -43 27 -99 31 -125 4 -27 8 -48 9 -48 0 0 123 -3 271 -7 149 -3 272
-7 274 -9 2 -2 -124 -4 -281 -4 l-285 0 -7 39 c-8 49 -70 250 -96 308 -35 79
-154 246 -239 335 -77 82 -213 192 -304 247 -104 63 -297 142 -392 160 -33 7
-70 14 -82 17 l-23 4 0 339 c0 186 2 340 5 343 7 7 134 -9 260 -33z m1295
-1110 c0 -6 -4 -7 -10 -4 -5 3 -10 11 -10 16 0 6 5 7 10 4 6 -3 10 -11 10 -16z
m-50 -149 c0 -11 -4 -20 -9 -20 -6 0 -9 9 -8 20 1 11 5 20 9 20 4 0 8 -9 8
-20z m-80 -75 c0 -9 -34 -45 -43 -45 -10 0 25 49 36 50 4 0 7 -2 7 -5z m-287
-204 c9 -27 17 -57 17 -68 0 -10 5 -24 11 -30 7 -7 7 -13 0 -17 -6 -4 -15 11
-21 36 -11 44 -23 80 -35 111 -4 9 -3 17 2 17 4 0 16 -22 26 -49z m41 33 c9
-3 13 -10 10 -15 -8 -14 -21 -11 -28 6 -6 17 -4 18 18 9z m64 -12 c-8 -9 -14
-9 -24 -1 -18 15 -18 14 10 14 18 0 22 -3 14 -13z"/>
<path d="M4153 4630 c0 -41 2 -58 4 -37 2 20 2 54 0 75 -2 20 -4 3 -4 -38z"/>
<path d="M4153 4295 c0 -44 2 -61 4 -37 2 23 2 59 0 80 -2 20 -4 1 -4 -43z"/>
<path d="M4153 4115 c0 -33 2 -45 4 -27 2 18 2 45 0 60 -2 15 -4 0 -4 -33z"/>
<path d="M5501 3962 c-1 -13 10 -33 22 -45 13 -12 22 -27 20 -34 -2 -6 6 -18
19 -27 24 -17 58 -22 58 -8 0 11 -29 49 -30 38 0 -9 -48 40 -73 76 l-16 23 0
-23z"/>
<path d="M5580 3769 c0 -5 5 -7 10 -4 6 3 10 8 10 11 0 2 -4 4 -10 4 -5 0 -10
-5 -10 -11z"/>
<path d="M5625 3670 c-3 -5 -1 -10 4 -10 6 0 11 5 11 10 0 6 -2 10 -4 10 -3 0
-8 -4 -11 -10z"/>
<path d="M4949 3613 c29 -35 55 -63 59 -63 6 0 -20 31 -72 85 -23 24 -18 15
13 -22z"/>
<path d="M5106 3407 c3 -10 9 -15 12 -12 3 3 0 11 -7 18 -10 9 -11 8 -5 -6z"/>
<path d="M5375 3290 c4 -6 11 -8 16 -5 14 9 11 15 -7 15 -8 0 -12 -5 -9 -10z"/>
<path d="M5303 3242 c1 -14 5 -18 11 -12 7 7 6 14 -1 21 -9 9 -12 7 -10 -9z"/>
<path d="M2087 3848 c-127 -179 -207 -327 -268 -500 -42 -118 -114 -421 -105
-445 4 -11 79 -13 405 -13 l400 0 11 43 c33 132 103 299 159 381 17 24 31 49
31 54 0 9 -314 323 -476 475 -41 39 -79 67 -92 67 -14 0 -35 -19 -65 -62z
m332 -196 c138 -136 251 -253 251 -259 0 -7 -18 -40 -39 -73 -46 -70 -123
-251 -141 -327 l-12 -53 -370 0 -369 0 6 48 c23 164 85 370 159 527 69 147
224 385 250 385 8 0 127 -111 265 -248z"/>
<path d="M2517 3153 c-4 -3 -7 -13 -7 -22 1 -13 3 -13 11 2 11 19 8 33 -4 20z"/>
<path d="M2490 3086 c-15 -42 -11 -55 6 -17 8 19 12 36 9 39 -2 3 -9 -7 -15
-22z"/>
<path d="M2250 2970 l-215 -6 218 -2 c139 -1 217 2 217 8 0 6 -1 9 -2 8 -2 -1
-100 -5 -218 -8z"/>
<path d="M3735 3683 c-131 -21 -293 -79 -409 -147 -179 -105 -352 -327 -425
-542 -176 -524 157 -1125 713 -1285 102 -30 310 -37 436 -15 188 33 319 94
475 219 170 137 282 314 341 538 24 88 28 124 28 234 0 274 -94 505 -287 702
-94 97 -187 162 -306 214 -142 62 -226 80 -391 84 -80 2 -158 1 -175 -2z m282
-54 c363 -50 684 -319 797 -669 51 -155 63 -277 43 -415 -25 -179 -78 -308
-185 -450 -196 -262 -464 -395 -796 -395 -150 0 -248 17 -363 64 -113 47 -179
87 -272 166 -95 82 -153 155 -213 263 -97 177 -133 329 -125 527 5 131 25 215
82 345 82 184 264 376 437 462 197 97 391 130 595 102z"/>
<path d="M3780 3463 c-128 -21 -231 -61 -337 -129 -112 -72 -164 -122 -230
-221 -154 -232 -184 -493 -88 -750 44 -116 157 -258 271 -339 131 -93 271
-142 438 -151 400 -23 734 231 821 621 25 111 17 293 -17 396 -69 207 -175
341 -372 465 -141 89 -337 133 -486 108z m232 -38 c68 -14 114 -32 105 -42 -3
-3 -56 1 -117 8 -88 10 -127 10 -183 1 -86 -15 -259 -79 -335 -124 -59 -35
-222 -188 -222 -208 0 -7 -8 -24 -19 -38 -27 -40 -69 -176 -82 -267 -10 -74
-7 -169 7 -240 5 -21 3 -27 -4 -20 -6 6 -13 24 -15 40 -4 25 -5 24 -4 -7 3
-77 -11 -45 -23 53 -10 81 -10 123 0 203 6 55 16 108 21 118 5 9 9 26 9 38 0
28 43 112 96 186 99 140 283 262 449 299 80 18 234 18 317 0z m-56 -130 c42
-28 74 -151 44 -170 -6 -4 -8 -15 -5 -26 4 -11 2 -19 -4 -19 -6 0 -10 -3 -9
-7 3 -17 -40 -113 -52 -113 -4 0 -12 -14 -15 -31 -5 -21 -10 -27 -15 -19 -9
14 -22 -2 -27 -34 -5 -30 -43 -87 -57 -84 -6 2 -13 0 -14 -4 -6 -18 -51 -58
-64 -58 -9 0 -26 -11 -39 -24 -27 -26 -97 -66 -116 -66 -7 0 -13 -4 -13 -9 0
-10 -74 -24 -134 -25 -51 -2 -130 38 -164 82 -26 34 -27 42 -27 146 0 104 2
115 32 178 17 37 48 85 69 105 20 21 46 49 58 63 63 75 221 139 366 149 86 7
139 -3 186 -34z m-799 -887 c-3 -8 -6 -5 -6 6 -1 11 2 17 5 13 3 -3 4 -12 1
-19z"/>
<path d="M5032 3030 c0 -8 4 -26 8 -40 6 -20 8 -21 8 -5 0 11 -3 29 -8 40 -5
12 -8 14 -8 5z"/>
<path d="M5067 2849 c3 -24 7 -46 9 -48 9 -10 3 65 -5 78 -6 10 -8 -1 -4 -30z"/>
<path d="M4912 2815 c0 -16 2 -22 5 -12 2 9 2 23 0 30 -3 6 -5 -1 -5 -18z"/>
<path d="M4936 2503 c-6 -14 -5 -15 5 -6 7 7 10 15 7 18 -3 3 -9 -2 -12 -12z"/>
<path d="M3095 1784 c12 -11 32 -28 45 -39 l25 -20 -25 28 c-14 16 -34 33 -45
39 -19 10 -19 10 0 -8z"/>
<path d="M1723 2433 c-19 -7 -16 -45 12 -179 33 -164 58 -255 100 -363 162
-426 413 -737 805 -1000 134 -89 375 -212 504 -255 184 -62 469 -116 507 -95
18 9 19 26 19 393 0 295 -3 386 -12 393 -7 5 -69 24 -138 42 -453 117 -811
454 -955 901 -21 63 -41 124 -45 136 -7 19 -19 22 -107 27 -113 8 -672 8 -690
0z m755 -19 c14 -4 22 -14 22 -29 0 -32 66 -217 107 -300 77 -154 227 -345
351 -448 172 -145 440 -275 620 -303 23 -4 45 -11 49 -17 17 -27 -227 39 -349
96 -80 37 -214 119 -288 176 -80 62 -238 233 -297 321 -38 58 -124 218 -133
250 -5 14 -22 63 -39 110 -17 47 -31 93 -31 103 0 17 -13 18 -191 16 -105 -1
-203 -5 -217 -9 -20 -6 -6 -9 49 -9 44 -1 80 -6 87 -13 9 -9 12 -9 12 0 0 7
12 11 28 11 16 -1 20 -3 10 -6 -22 -5 -24 -23 -3 -23 7 0 19 8 24 18 9 15 10
15 11 0 0 -9 6 -19 13 -21 6 -3 -3 -6 -20 -6 -32 -1 -49 -21 -18 -21 18 0 20
-16 3 -23 -10 -4 -9 -8 2 -18 8 -8 13 -13 11 -11 -3 1 -15 -7 -27 -19 -23 -21
-54 -20 -54 1 0 8 7 7 23 0 20 -10 21 -10 4 4 -16 12 -24 13 -57 1 -25 -9 -41
-10 -48 -3 -6 6 -12 4 -16 -7 -4 -12 -2 -16 7 -12 7 3 19 -4 26 -15 7 -11 15
-17 18 -14 3 3 1 12 -6 20 -9 11 -7 15 9 19 16 4 19 2 11 -7 -12 -14 -3 -29
27 -45 22 -11 23 -11 18 6 -4 14 -1 19 15 20 18 2 19 0 7 -14 -7 -9 -12 -19
-10 -22 1 -3 -22 -6 -50 -6 -49 0 -53 2 -50 22 3 23 -9 25 -44 5 -12 -6 -24
-8 -28 -5 -3 3 -6 2 -6 -3 0 -5 -8 -10 -17 -10 -26 -1 -47 -8 -54 -17 -11 -15
-40 5 -34 24 4 11 2 19 -5 19 -8 0 -10 -10 -8 -25 4 -17 1 -25 -8 -25 -8 0
-14 6 -14 14 0 9 -8 12 -24 9 -13 -3 -27 0 -30 6 -9 14 -26 14 -26 0 0 -5 4
-7 10 -4 6 3 7 -1 4 -9 -7 -19 -20 -21 -28 -3 -4 6 -4 1 -1 -13 2 -14 5 -34 5
-45 0 -15 3 -17 9 -7 6 10 10 9 14 -7 3 -12 1 -18 -4 -15 -13 8 -3 -32 37
-144 72 -199 180 -395 306 -555 113 -144 331 -337 513 -456 94 -62 110 -76 40
-36 -135 76 -309 216 -463 373 -241 245 -414 582 -518 1009 -19 77 -34 144
-34 147 0 8 718 8 748 0z m-358 -244 c0 -5 -7 -7 -15 -4 -8 4 -12 10 -9 15 6
11 24 2 24 -11z m-84 -25 c-11 -8 -22 -12 -25 -9 -6 6 19 24 34 24 6 -1 1 -7
-9 -15z m-116 -9 c0 -11 -19 -15 -25 -6 -3 5 1 10 9 10 9 0 16 -2 16 -4z m40
-16 c-32 -25 -49 -26 -24 -1 10 11 26 20 34 20 10 0 6 -6 -10 -19z m95 0 c-3
-5 -11 -10 -16 -10 -6 0 -7 5 -4 10 3 6 11 10 16 10 6 0 7 -4 4 -10z m130 -10
c-3 -5 -12 -10 -18 -10 -7 0 -6 4 3 10 19 12 23 12 15 0z m801 -1348 c-5 -4
-186 86 -186 93 0 3 43 -16 95 -42 52 -26 93 -49 91 -51z"/>
<path d="M1853 2383 c9 -2 25 -2 35 0 9 3 1 5 -18 5 -19 0 -27 -2 -17 -5z"/>
<path d="M2190 2319 c-11 -19 -10 -20 10 -9 11 6 18 15 15 21 -9 13 -13 11
-25 -12z"/>
<path d="M2030 2310 c-8 -5 -12 -12 -9 -15 4 -3 12 1 19 10 14 17 11 19 -10 5z"/>
<path d="M2240 2298 c0 -9 -6 -16 -12 -15 -31 1 -48 -4 -48 -13 0 -7 6 -8 16
-2 9 5 25 7 34 5 22 -6 36 15 21 30 -8 8 -11 7 -11 -5z"/>
<path d="M2099 2273 c-13 -17 -13 -17 6 -3 11 8 22 16 24 17 2 2 0 3 -6 3 -6
0 -17 -8 -24 -17z"/>
<path d="M2000 2240 c0 -5 5 -10 10 -10 6 0 10 5 10 10 0 6 -4 10 -10 10 -5 0
-10 -4 -10 -10z"/>
<path d="M1860 2230 c-13 -8 -13 -10 2 -10 9 0 20 5 23 10 8 13 -5 13 -25 0z"/>
<path d="M2043 2233 c11 -3 16 -11 13 -19 -3 -8 -1 -14 4 -14 6 0 10 5 10 11
0 5 6 7 13 4 6 -4 3 1 -7 9 -11 9 -27 15 -35 15 -12 -1 -11 -3 2 -6z"/>
<path d="M1905 2210 c3 -5 8 -10 11 -10 2 0 4 5 4 10 0 6 -5 10 -11 10 -5 0
-7 -4 -4 -10z"/>
<path d="M1860 2205 c0 -2 10 -10 23 -16 20 -11 21 -11 8 4 -13 16 -31 23 -31
12z"/>
<path d="M5235 2428 c-2 -7 -13 -49 -24 -93 -62 -244 -177 -441 -371 -636
-177 -178 -336 -263 -685 -366 l-60 -18 0 -390 0 -390 81 2 c240 4 667 167
927 352 44 31 99 70 124 88 262 184 539 536 668 847 41 99 87 236 114 336 24
91 46 242 38 264 -6 14 -51 16 -407 16 -312 0 -402 -3 -405 -12z m784 -14 c2
-2 2 -6 0 -8 -2 -2 -164 -6 -360 -9 -196 -2 -361 -7 -367 -11 -5 -3 -13 -22
-17 -42 -3 -20 -10 -44 -15 -53 -5 -9 -27 -65 -50 -126 -49 -132 -125 -263
-222 -382 -139 -172 -266 -272 -478 -378 -81 -41 -297 -115 -334 -115 -23 0
-23 -2 -29 -137 -4 -75 -7 -232 -7 -349 0 -117 -3 -219 -6 -228 -19 -49 -24
30 -24 363 l0 368 68 17 c298 77 571 232 735 421 150 171 238 330 302 540 19
66 37 125 39 130 3 10 755 9 765 -1z m-32 -136 c-3 -8 -6 -5 -6 6 -1 11 2 17
5 13 3 -3 4 -12 1 -19z"/>
<path d="M2650 4930 c-9 -6 -10 -10 -3 -10 6 0 15 5 18 10 8 12 4 12 -15 0z"/>
<path d="M2440 4810 c-9 -6 -10 -10 -3 -10 6 0 15 5 18 10 8 12 4 12 -15 0z"/>
<path d="M2280 4700 c-9 -6 -10 -10 -3 -10 6 0 15 5 18 10 8 12 4 12 -15 0z"/>
<path d="M2196 4635 c-11 -8 -17 -17 -14 -20 2 -3 13 4 23 15 21 23 18 25 -9
5z"/>
<path d="M2144 4588 l-19 -23 23 19 c21 18 27 26 19 26 -2 0 -12 -10 -23 -22z"/>
<path d="M1995 4448 l-70 -73 73 70 c67 64 77 75 69 75 -1 0 -34 -33 -72 -72z"/>
<path d="M1905 4352 c-5 -4 -17 -16 -25 -27 -11 -15 -7 -14 13 4 24 22 32 31
25 31 -2 0 -7 -4 -13 -8z"/>
<path d="M1800 4228 c-15 -21 -17 -28 -6 -19 16 13 41 51 33 51 -2 0 -14 -15
-27 -32z"/>
<path d="M6202 3230 c0 -14 2 -19 5 -12 2 6 2 18 0 25 -3 6 -5 1 -5 -13z"/>
<path d="M6242 3005 c0 -16 2 -22 5 -12 2 9 2 23 0 30 -3 6 -5 -1 -5 -18z"/>
<path d="M563 2038 c-5 -7 -38 -84 -72 -171 -75 -191 -146 -342 -219 -462
-129 -213 -151 -254 -177 -325 -51 -142 -44 -325 19 -448 53 -104 183 -207
300 -238 73 -20 208 -18 288 4 164 46 301 192 337 360 33 155 3 296 -103 491
-156 287 -203 390 -311 686 -41 111 -47 122 -62 103z m-8 -226 c-9 -92 -18
-172 -20 -179 -2 -7 3 -45 11 -84 20 -96 24 -277 8 -345 -16 -70 -18 -75 -47
-144 -17 -39 -69 -90 -92 -90 -12 0 -25 -4 -31 -9 -17 -16 -108 -31 -121 -19
-26 21 -46 118 -39 185 9 83 27 128 98 238 80 124 124 212 133 263 4 24 15 51
25 60 14 13 60 196 81 320 1 4 3 -1 6 -11 3 -10 -3 -94 -12 -185z m-101 -109
c-34 -85 -120 -262 -154 -318 -143 -236 -179 -323 -196 -473 -4 -36 -10 -60
-15 -55 -14 14 7 182 29 238 20 52 90 176 156 279 21 32 72 128 113 212 74
151 97 191 67 117z"/>
<path d="M7182 1837 c-6 -7 -27 -56 -45 -108 -68 -187 -129 -324 -223 -496
-53 -96 -107 -207 -121 -246 -85 -238 3 -470 215 -570 58 -27 80 -32 167 -35
113 -5 194 16 270 68 143 98 217 312 174 499 -13 59 -68 176 -134 286 -83 140
-182 348 -229 485 -24 68 -48 126 -53 127 -6 2 -15 -2 -21 -10z m-3 -242 c-20
-142 -24 -211 -10 -219 4 -3 11 -34 15 -68 9 -81 9 -69 -2 -173 -14 -137 -28
-157 -149 -221 -25 -14 -51 -20 -65 -17 -73 17 -63 104 36 300 25 51 46 100
46 109 0 9 14 39 31 66 19 32 41 94 60 172 33 133 49 189 54 184 2 -2 -6 -61
-16 -133z m-290 -481 c-42 -92 -48 -115 -64 -214 l-13 -85 -1 60 c0 33 6 84
13 113 14 51 86 205 93 198 2 -2 -11 -34 -28 -72z"/>
<path d="M1955 1010 c21 -22 41 -40 44 -40 3 0 -13 18 -34 40 -21 22 -41 40
-44 40 -3 0 13 -18 34 -40z"/>
<path d="M2046 1036 c3 -9 11 -16 16 -16 13 0 5 23 -10 28 -7 2 -10 -2 -6 -12z"/>
<path d="M2074 1008 c-4 -7 -3 -8 4 -4 7 4 12 2 12 -3 0 -6 7 -11 16 -11 14 0
14 3 4 15 -15 18 -26 19 -36 3z"/>
<path d="M2020 970 c0 -5 5 -10 10 -10 6 0 10 5 10 10 0 6 -4 10 -10 10 -5 0
-10 -4 -10 -10z"/>
</g>
</svg>
